<?xml version="1.0" encoding="UTF-8" standalone="no"?>
<!-- Created with Inkscape (http://www.inkscape.org/) -->

<svg
   version="1.1"
   id="svg2"
   xml:space="preserve"
   width="925.224"
   height="320.42398"
   viewBox="0 0 925.224 320.42398"
   sodipodi:docname="12564-01 ECSE Logo_FINAL.svg"
   inkscape:version="1.1.1 (1:1.1+202109281949+c3084ef5ed)"
   xmlns:inkscape="http://www.inkscape.org/namespaces/inkscape"
   xmlns:sodipodi="http://sodipodi.sourceforge.net/DTD/sodipodi-0.dtd"
   xmlns="http://www.w3.org/2000/svg"
   xmlns:svg="http://www.w3.org/2000/svg"><defs
     id="defs6" /><sodipodi:namedview
     id="namedview4"
     pagecolor="#ffffff"
     bordercolor="#666666"
     borderopacity="1.0"
     inkscape:pageshadow="2"
     inkscape:pageopacity="0.0"
     inkscape:pagecheckerboard="0"
     showgrid="false"
     fit-margin-top="20"
     fit-margin-left="20"
     fit-margin-right="20"
     fit-margin-bottom="20"
     inkscape:zoom="0.59375"
     inkscape:cx="767.15789"
     inkscape:cy="384"
     inkscape:window-width="1920"
     inkscape:window-height="1135"
     inkscape:window-x="0"
     inkscape:window-y="36"
     inkscape:window-maximized="1"
     inkscape:current-layer="g8" /><g
     id="g8"
     inkscape:groupmode="layer"
     inkscape:label="ink_ext_XXXXXX"
     transform="matrix(1.3333333,0,0,-1.3333333,-65.387998,568.21199)"><path
       d="m 65.9734,234.813 h 2.6067 c 4.0086,0 6.0844,2.391 6.0844,7.074 0,5.095 -2.4141,7.074 -5.9879,7.074 h -2.7032 z m -1.9324,15.79 h 4.6848 c 4.7316,0 7.8691,-2.994 7.8691,-8.716 0,-5.118 -2.7523,-8.715 -7.9656,-8.715 H 64.041 v 17.431"
       style="fill:#231f20;fill-opacity:1;fill-rule:nonzero;stroke:none;stroke-width:0.1"
       id="path12" /><path
       d="m 87.0898,240.607 c 0,2.318 -1.1109,3.863 -2.9941,3.863 -2.1004,0 -3.2336,-1.545 -3.3793,-3.863 z m 2.125,-4.756 c -0.8199,-1.424 -1.9796,-2.921 -4.8281,-2.921 -2.8012,0 -5.457,1.931 -5.457,6.519 0,4.056 2.0285,6.518 5.1187,6.518 2.6071,0 4.7809,-1.689 4.7809,-5.698 v -1.159 h -8.1602 c 0,-2.752 1.6418,-4.683 3.7176,-4.683 1.5449,0 2.752,0.821 3.4754,2.125 l 1.3527,-0.701"
       style="fill:#231f20;fill-opacity:1;fill-rule:nonzero;stroke:none;stroke-width:0.1"
       id="path14" /><path
       d="m 94.1355,236.166 c 0.9407,-1.038 2.125,-1.739 3.1622,-1.739 2.0285,0 3.5493,1.328 3.5493,5.118 0,3.187 -1.3755,4.925 -3.5493,4.925 -1.111,0 -1.9305,-0.482 -3.1622,-1.689 z m -1.7378,-7.63 v 17.189 h 1.7378 v -1.472 h 0.0489 c 0.6519,0.942 2.0515,1.714 3.2586,1.714 2.2215,0 5.142,-1.497 5.142,-6.518 0,-4.877 -2.9205,-6.519 -5.0459,-6.519 -1.1825,0 -2.3422,0.603 -3.3075,1.401 l -0.0961,0.048 v -5.843 h -1.7378"
       style="fill:#231f20;fill-opacity:1;fill-rule:nonzero;stroke:none;stroke-width:0.1"
       id="path16" /><path
       d="m 112.62,239.956 c -3.983,-0.7 -5.938,-1.859 -5.938,-3.598 0,-1.159 1.11,-1.931 2.076,-1.931 1.256,0 2.848,0.918 3.862,2.077 z m -7.314,3.355 c 0.796,1.449 2.341,2.656 4.708,2.656 2.125,0 4.346,-1.014 4.346,-3.766 v -6.325 c 0,-1.376 0.119,-2.053 0.289,-2.704 h -1.787 l -0.193,1.737 c -0.868,-0.965 -2.27,-1.979 -4.153,-1.979 -1.931,0 -3.572,1.159 -3.572,3.453 0,2.752 2.1,4.128 7.676,5.118 v 0.676 c 0,1.666 -1.086,2.293 -2.582,2.293 -1.932,0 -2.873,-1.11 -3.211,-1.955 l -1.521,0.796"
       style="fill:#231f20;fill-opacity:1;fill-rule:nonzero;stroke:none;stroke-width:0.1"
       id="path18" /><path
       d="m 117.928,245.725 h 1.738 v -2.485 h 0.047 c 0.967,1.713 2.004,2.679 4.082,2.679 v -1.739 c -2.174,-0.048 -3.307,-1.472 -4.129,-4.055 v -6.953 h -1.738 v 12.553"
       style="fill:#231f20;fill-opacity:1;fill-rule:nonzero;stroke:none;stroke-width:0.1"
       id="path20" /><path
       d="m 127.001,245.725 v 4.13 h 1.739 v -4.13 h 2.896 v -1.496 h -2.896 v -8.932 c 0,-0.58 0.41,-0.87 1.425,-0.87 0.58,0 1.086,0.048 1.545,0.121 v -1.425 c -0.314,-0.096 -1.015,-0.193 -2.029,-0.193 -1.883,0 -2.68,0.483 -2.68,2.077 v 9.222 h -2.052 v 1.496 h 2.052"
       style="fill:#231f20;fill-opacity:1;fill-rule:nonzero;stroke:none;stroke-width:0.1"
       id="path22" /><path
       d="m 134.772,233.172 v 12.553 h 1.738 v -1.665 l 0.096,0.097 c 1.063,1.183 2.438,1.81 3.646,1.81 1.618,0 2.752,-0.821 3.211,-1.979 1.11,1.183 2.512,1.979 3.983,1.979 1.666,0 3.453,-0.7 3.453,-3.814 v -8.981 h -1.737 v 8.981 c 0,1.69 -0.847,2.317 -1.957,2.317 -1.546,0 -2.558,-1.013 -3.501,-1.931 v -9.367 h -1.737 v 8.981 c 0,1.69 -0.845,2.317 -1.955,2.317 -1.546,0 -2.56,-1.013 -3.502,-1.931 v -9.367 h -1.738"
       style="fill:#231f20;fill-opacity:1;fill-rule:nonzero;stroke:none;stroke-width:0.1"
       id="path24" /><path
       d="m 162.259,240.607 c 0,2.318 -1.11,3.863 -2.994,3.863 -2.1,0 -3.233,-1.545 -3.379,-3.863 z m 2.125,-4.756 c -0.821,-1.424 -1.979,-2.921 -4.828,-2.921 -2.801,0 -5.457,1.931 -5.457,6.519 0,4.056 2.029,6.518 5.119,6.518 2.607,0 4.781,-1.689 4.781,-5.698 v -1.159 h -8.162 c 0,-2.752 1.643,-4.683 3.719,-4.683 1.545,0 2.752,0.821 3.476,2.125 l 1.352,-0.701"
       style="fill:#231f20;fill-opacity:1;fill-rule:nonzero;stroke:none;stroke-width:0.1"
       id="path26" /><path
       d="m 169.33,245.725 v -1.689 h 0.047 c 0.99,1.11 2.295,1.931 3.719,1.931 1.859,0 3.621,-0.965 3.621,-3.669 v -9.126 h -1.738 v 9.078 c 0,1.665 -0.797,2.22 -2.053,2.22 -1.303,0 -2.799,-1.062 -3.596,-1.907 v -9.391 h -1.738 v 12.553 h 1.738"
       style="fill:#231f20;fill-opacity:1;fill-rule:nonzero;stroke:none;stroke-width:0.1"
       id="path28" /><path
       d="m 181.587,245.725 v 4.13 h 1.739 v -4.13 h 2.896 v -1.496 h -2.896 v -8.932 c 0,-0.58 0.41,-0.87 1.425,-0.87 0.58,0 1.086,0.048 1.545,0.121 v -1.425 c -0.314,-0.096 -1.015,-0.193 -2.029,-0.193 -1.883,0 -2.68,0.483 -2.68,2.077 v 9.222 h -2.052 v 1.496 h 2.052"
       style="fill:#231f20;fill-opacity:1;fill-rule:nonzero;stroke:none;stroke-width:0.1"
       id="path30" /><path
       d="m 201.012,244.47 c -2.076,0 -3.403,-1.786 -3.403,-5.021 0,-3.235 1.327,-5.022 3.403,-5.022 2.078,0 3.404,1.787 3.404,5.022 0,3.235 -1.326,5.021 -3.404,5.021 z m 0,-11.54 c -3.428,0 -5.141,2.897 -5.141,6.519 0,3.622 1.713,6.518 5.141,6.518 3.429,0 5.144,-2.896 5.144,-6.518 0,-3.622 -1.715,-6.519 -5.144,-6.519"
       style="fill:#231f20;fill-opacity:1;fill-rule:nonzero;stroke:none;stroke-width:0.1"
       id="path32" /><path
       d="m 210.062,233.172 v 11.057 h -2.125 v 1.496 h 2.125 v 1.426 c 0,2.969 1.015,3.693 3.066,3.693 0.506,0 1.039,-0.072 1.545,-0.12 v -1.546 c -0.41,0.049 -0.869,0.169 -1.256,0.169 -1.183,0 -1.617,-0.386 -1.617,-1.787 v -1.835 h 2.728 v -1.496 H 211.8 v -11.057 h -1.738"
       style="fill:#231f20;fill-opacity:1;fill-rule:nonzero;stroke:none;stroke-width:0.1"
       id="path34" /><path
       d="m 236.226,250.603 v -1.642 h -8.523 v -5.842 h 6.06 v -1.642 h -6.06 v -6.664 h 9.004 v -1.641 h -10.936 v 17.431 h 10.455"
       style="fill:#231f20;fill-opacity:1;fill-rule:nonzero;stroke:none;stroke-width:0.1"
       id="path36" /><path
       d="m 242.374,250.603 v -17.431 h -1.74 v 17.431 h 1.74"
       style="fill:#231f20;fill-opacity:1;fill-rule:nonzero;stroke:none;stroke-width:0.1"
       id="path38" /><path
       d="m 254.225,240.607 c 0,2.318 -1.11,3.863 -2.994,3.863 -2.1,0 -3.234,-1.545 -3.379,-3.863 z m 2.125,-4.756 c -0.82,-1.424 -1.979,-2.921 -4.828,-2.921 -2.801,0 -5.457,1.931 -5.457,6.519 0,4.056 2.029,6.518 5.119,6.518 2.607,0 4.781,-1.689 4.781,-5.698 v -1.159 h -8.16 c 0,-2.752 1.641,-4.683 3.717,-4.683 1.545,0 2.752,0.821 3.476,2.125 l 1.352,-0.701"
       style="fill:#231f20;fill-opacity:1;fill-rule:nonzero;stroke:none;stroke-width:0.1"
       id="path40" /><path
       d="m 266.486,241.983 c -0.483,1.522 -1.473,2.487 -2.969,2.487 -2.15,0 -3.404,-1.835 -3.404,-5.021 0,-3.187 1.254,-5.022 3.404,-5.022 1.592,0 2.486,0.532 3.451,2.318 l 1.401,-0.628 c -1.256,-2.125 -2.366,-3.187 -4.852,-3.187 -3.14,0 -5.144,2.463 -5.144,6.519 0,4.056 2.004,6.518 5.144,6.518 2.582,0 3.789,-1.449 4.586,-3.404 l -1.617,-0.58"
       style="fill:#231f20;fill-opacity:1;fill-rule:nonzero;stroke:none;stroke-width:0.1"
       id="path42" /><path
       d="m 272.202,245.725 v 4.13 h 1.74 v -4.13 h 2.895 v -1.496 h -2.895 v -8.932 c 0,-0.58 0.41,-0.87 1.424,-0.87 0.58,0 1.086,0.048 1.545,0.121 v -1.425 c -0.313,-0.096 -1.014,-0.193 -2.029,-0.193 -1.883,0 -2.68,0.483 -2.68,2.077 v 9.222 h -2.051 v 1.496 h 2.051"
       style="fill:#231f20;fill-opacity:1;fill-rule:nonzero;stroke:none;stroke-width:0.1"
       id="path44" /><path
       d="m 279.682,245.725 h 1.738 v -2.485 h 0.049 c 0.965,1.713 2.002,2.679 4.08,2.679 v -1.739 c -2.174,-0.048 -3.309,-1.472 -4.129,-4.055 v -6.953 h -1.738 v 12.553"
       style="fill:#231f20;fill-opacity:1;fill-rule:nonzero;stroke:none;stroke-width:0.1"
       id="path46" /><path
       d="m 288.755,245.725 h 1.739 v -12.553 h -1.739 z m 1.739,5.119 v -2.076 h -1.739 v 2.076 h 1.739"
       style="fill:#231f20;fill-opacity:1;fill-rule:nonzero;stroke:none;stroke-width:0.1"
       id="path48" /><path
       d="m 302.298,241.983 c -0.483,1.522 -1.473,2.487 -2.969,2.487 -2.15,0 -3.406,-1.835 -3.406,-5.021 0,-3.187 1.256,-5.022 3.406,-5.022 1.592,0 2.486,0.532 3.451,2.318 l 1.401,-0.628 c -1.256,-2.125 -2.366,-3.187 -4.852,-3.187 -3.14,0 -5.144,2.463 -5.144,6.519 0,4.056 2.004,6.518 5.144,6.518 2.582,0 3.789,-1.449 4.586,-3.404 l -1.617,-0.58"
       style="fill:#231f20;fill-opacity:1;fill-rule:nonzero;stroke:none;stroke-width:0.1"
       id="path50" /><path
       d="m 314.219,239.956 c -3.984,-0.7 -5.939,-1.859 -5.939,-3.598 0,-1.159 1.111,-1.931 2.076,-1.931 1.256,0 2.849,0.918 3.863,2.077 z m -7.314,3.355 c 0.796,1.449 2.341,2.656 4.707,2.656 2.126,0 4.345,-1.014 4.345,-3.766 v -6.325 c 0,-1.376 0.121,-2.053 0.291,-2.704 h -1.787 l -0.193,1.737 c -0.869,-0.965 -2.27,-1.979 -4.153,-1.979 -1.931,0 -3.572,1.159 -3.572,3.453 0,2.752 2.1,4.128 7.676,5.118 v 0.676 c 0,1.666 -1.086,2.293 -2.582,2.293 -1.932,0 -2.873,-1.11 -3.211,-1.955 l -1.521,0.796"
       style="fill:#231f20;fill-opacity:1;fill-rule:nonzero;stroke:none;stroke-width:0.1"
       id="path52" /><path
       d="m 322.06,250.603 v -17.431 h -1.74 v 17.431 h 1.74"
       style="fill:#231f20;fill-opacity:1;fill-rule:nonzero;stroke:none;stroke-width:0.1"
       id="path54" /><path
       d="m 329.638,233.172 -1.52,-3.573 h -1.014 l 1.135,3.573 h -0.967 v 2.655 h 2.366 v -2.655"
       style="fill:#231f20;fill-opacity:1;fill-rule:nonzero;stroke:none;stroke-width:0.1"
       id="path56" /><path
       d="m 353.798,238.387 c -0.773,-3.236 -2.56,-5.457 -6.134,-5.457 -3.91,0 -6.662,2.849 -6.662,8.957 0,5.673 2.461,8.957 6.662,8.957 3.236,0 5.119,-1.883 5.892,-5.069 l -1.787,-0.532 c -0.627,2.463 -1.738,3.96 -4.344,3.96 -2.513,0 -4.492,-2.318 -4.492,-7.316 0,-5.045 1.979,-7.315 4.877,-7.315 2.68,0 3.717,2.028 4.25,4.152 l 1.738,-0.337"
       style="fill:#231f20;fill-opacity:1;fill-rule:nonzero;stroke:none;stroke-width:0.1"
       id="path58" /><path
       d="m 361.008,244.47 c -2.076,0 -3.404,-1.786 -3.404,-5.021 0,-3.235 1.328,-5.022 3.404,-5.022 2.078,0 3.404,1.787 3.404,5.022 0,3.235 -1.326,5.021 -3.404,5.021 z m 0,-11.54 c -3.429,0 -5.142,2.897 -5.142,6.519 0,3.622 1.713,6.518 5.142,6.518 3.428,0 5.143,-2.896 5.143,-6.518 0,-3.622 -1.715,-6.519 -5.143,-6.519"
       style="fill:#231f20;fill-opacity:1;fill-rule:nonzero;stroke:none;stroke-width:0.1"
       id="path60" /><path
       d="m 369.26,233.172 v 12.553 h 1.738 v -1.665 l 0.097,0.097 c 1.063,1.183 2.438,1.81 3.645,1.81 1.619,0 2.752,-0.821 3.211,-1.979 1.111,1.183 2.513,1.979 3.984,1.979 1.666,0 3.453,-0.7 3.453,-3.814 v -8.981 h -1.738 v 8.981 c 0,1.69 -0.846,2.317 -1.957,2.317 -1.545,0 -2.557,-1.013 -3.5,-1.931 v -9.367 h -1.738 v 8.981 c 0,1.69 -0.844,2.317 -1.955,2.317 -1.545,0 -2.559,-1.013 -3.502,-1.931 v -9.367 h -1.738"
       style="fill:#231f20;fill-opacity:1;fill-rule:nonzero;stroke:none;stroke-width:0.1"
       id="path62" /><path
       d="m 391.487,236.166 c 0.941,-1.038 2.125,-1.739 3.162,-1.739 2.029,0 3.55,1.328 3.55,5.118 0,3.187 -1.375,4.925 -3.55,4.925 -1.11,0 -1.93,-0.482 -3.162,-1.689 z m -1.737,-7.63 v 17.189 h 1.737 v -1.472 h 0.049 c 0.652,0.942 2.052,1.714 3.259,1.714 2.221,0 5.142,-1.497 5.142,-6.518 0,-4.877 -2.921,-6.519 -5.046,-6.519 -1.182,0 -2.342,0.603 -3.307,1.401 l -0.097,0.048 v -5.843 h -1.737"
       style="fill:#231f20;fill-opacity:1;fill-rule:nonzero;stroke:none;stroke-width:0.1"
       id="path64" /><path
       d="m 410.82,233.172 v 1.689 h -0.049 c -0.989,-1.109 -2.293,-1.931 -3.717,-1.931 -1.859,0 -3.621,0.966 -3.621,3.67 v 9.125 h 1.738 v -9.077 c 0,-1.666 0.797,-2.221 2.051,-2.221 1.303,0 2.801,1.062 3.598,1.908 v 9.39 h 1.738 v -12.553 h -1.738"
       style="fill:#231f20;fill-opacity:1;fill-rule:nonzero;stroke:none;stroke-width:0.1"
       id="path66" /><path
       d="m 417.426,245.725 v 4.13 h 1.74 v -4.13 h 2.895 v -1.496 h -2.895 v -8.932 c 0,-0.58 0.41,-0.87 1.424,-0.87 0.58,0 1.086,0.048 1.545,0.121 v -1.425 c -0.313,-0.096 -1.014,-0.193 -2.029,-0.193 -1.883,0 -2.68,0.483 -2.68,2.077 v 9.222 h -2.051 v 1.496 h 2.051"
       style="fill:#231f20;fill-opacity:1;fill-rule:nonzero;stroke:none;stroke-width:0.1"
       id="path68" /><path
       d="m 432.343,240.607 c 0,2.318 -1.111,3.863 -2.994,3.863 -2.101,0 -3.234,-1.545 -3.379,-3.863 z m 2.125,-4.756 c -0.82,-1.424 -1.98,-2.921 -4.828,-2.921 -2.801,0 -5.457,1.931 -5.457,6.519 0,4.056 2.028,6.518 5.119,6.518 2.606,0 4.781,-1.689 4.781,-5.698 v -1.159 h -8.161 c 0,-2.752 1.642,-4.683 3.718,-4.683 1.545,0 2.752,0.821 3.475,2.125 l 1.353,-0.701"
       style="fill:#231f20;fill-opacity:1;fill-rule:nonzero;stroke:none;stroke-width:0.1"
       id="path70" /><path
       d="m 437.216,245.725 h 1.738 v -2.485 h 0.047 c 0.967,1.713 2.004,2.679 4.082,2.679 v -1.739 c -2.174,-0.048 -3.307,-1.472 -4.129,-4.055 v -6.953 h -1.738 v 12.553"
       style="fill:#231f20;fill-opacity:1;fill-rule:nonzero;stroke:none;stroke-width:0.1"
       id="path72" /><path
       d="m 447.33,233.172 -1.521,-3.573 h -1.014 l 1.135,3.573 h -0.967 v 2.655 h 2.367 v -2.655"
       style="fill:#231f20;fill-opacity:1;fill-rule:nonzero;stroke:none;stroke-width:0.1"
       id="path74" /><path
       d="m 466.368,239.956 c -3.984,-0.7 -5.939,-1.859 -5.939,-3.598 0,-1.159 1.111,-1.931 2.076,-1.931 1.256,0 2.849,0.918 3.863,2.077 z m -7.314,3.355 c 0.795,1.449 2.34,2.656 4.707,2.656 2.125,0 4.345,-1.014 4.345,-3.766 v -6.325 c 0,-1.376 0.121,-2.053 0.291,-2.704 h -1.787 l -0.193,1.737 c -0.869,-0.965 -2.27,-1.979 -4.154,-1.979 -1.93,0 -3.572,1.159 -3.572,3.453 0,2.752 2.101,4.128 7.677,5.118 v 0.676 c 0,1.666 -1.086,2.293 -2.582,2.293 -1.933,0 -2.873,-1.11 -3.211,-1.955 l -1.521,0.796"
       style="fill:#231f20;fill-opacity:1;fill-rule:nonzero;stroke:none;stroke-width:0.1"
       id="path76" /><path
       d="m 473.873,245.725 v -1.689 h 0.047 c 0.99,1.11 2.295,1.931 3.719,1.931 1.859,0 3.621,-0.965 3.621,-3.669 v -9.126 h -1.738 v 9.078 c 0,1.665 -0.797,2.22 -2.053,2.22 -1.303,0 -2.799,-1.062 -3.596,-1.907 v -9.391 h -1.738 v 12.553 h 1.738"
       style="fill:#231f20;fill-opacity:1;fill-rule:nonzero;stroke:none;stroke-width:0.1"
       id="path78" /><path
       d="m 493.204,242.732 c -0.941,1.038 -2.123,1.738 -3.162,1.738 -2.029,0 -3.549,-1.328 -3.549,-5.118 0,-3.186 1.377,-4.925 3.549,-4.925 1.11,0 1.932,0.482 3.162,1.69 z m 1.74,7.871 v -14.679 c 0,-0.917 -0.05,-1.835 0.096,-2.752 h -1.594 l -0.242,1.231 c -0.578,-0.797 -1.81,-1.473 -3.308,-1.473 -2.221,0 -5.141,1.497 -5.141,6.519 0,4.877 2.92,6.518 5.045,6.518 1.184,0 2.342,-0.603 3.308,-1.399 l 0.096,-0.05 v 6.085 h 1.74"
       style="fill:#231f20;fill-opacity:1;fill-rule:nonzero;stroke:none;stroke-width:0.1"
       id="path80" /><path
       d="m 515.718,246.161 c -0.435,1.689 -1.812,3.042 -4.056,3.042 -2.028,0 -3.235,-0.966 -3.26,-2.705 -0.047,-3.814 9.802,-2.849 9.802,-8.449 0,-2.535 -1.425,-5.119 -5.865,-5.119 -3.816,0 -5.312,2.463 -6.23,4.539 l 1.762,0.628 c 0.701,-1.835 2.004,-3.525 4.564,-3.525 2.559,0 3.838,1.352 3.838,3.139 0,4.442 -9.801,3.138 -9.801,8.642 0,2.512 2.1,4.491 5.238,4.491 2.704,0 4.83,-1.424 5.746,-4.297 l -1.738,-0.386"
       style="fill:#231f20;fill-opacity:1;fill-rule:nonzero;stroke:none;stroke-width:0.1"
       id="path82" /><path
       d="m 530.221,245.725 -4.418,-13.664 c -0.916,-2.8 -2.582,-3.525 -4.224,-3.525 -0.58,0 -0.918,0.097 -1.256,0.145 v 1.425 c 0.242,-0.025 0.555,-0.073 0.943,-0.073 1.061,0 2.678,0.241 3.283,2.994 l -4.371,12.698 h 1.836 l 3.379,-9.584 h 0.049 l 2.945,9.584 h 1.834"
       style="fill:#231f20;fill-opacity:1;fill-rule:nonzero;stroke:none;stroke-width:0.1"
       id="path84" /><path
       d="m 532.799,236.358 c 0.822,-1.182 2.029,-1.931 3.599,-1.931 1.883,0 2.703,1.014 2.703,2.077 0,3.186 -7.435,1.496 -7.291,6.083 0.073,2.173 1.739,3.405 4.153,3.38 1.642,-0.023 3.451,-0.917 4.298,-2.197 l -1.207,-1.062 c -0.968,1.183 -1.884,1.762 -3.236,1.762 -1.473,0 -2.269,-0.748 -2.269,-1.858 0,-2.729 7.29,-1.328 7.29,-6.012 0,-2.439 -2.124,-3.67 -4.394,-3.67 -1.955,0 -3.863,0.845 -5.021,2.39 l 1.375,1.038"
       style="fill:#231f20;fill-opacity:1;fill-rule:nonzero;stroke:none;stroke-width:0.1"
       id="path86" /><path
       d="m 544.286,245.725 v 4.13 h 1.74 v -4.13 h 2.895 v -1.496 h -2.895 v -8.932 c 0,-0.58 0.409,-0.87 1.424,-0.87 0.58,0 1.086,0.048 1.545,0.121 v -1.425 c -0.314,-0.096 -1.014,-0.193 -2.029,-0.193 -1.883,0 -2.68,0.483 -2.68,2.077 v 9.222 h -2.051 v 1.496 h 2.051"
       style="fill:#231f20;fill-opacity:1;fill-rule:nonzero;stroke:none;stroke-width:0.1"
       id="path88" /><path
       d="m 559.201,240.607 c 0,2.318 -1.111,3.863 -2.994,3.863 -2.101,0 -3.234,-1.545 -3.379,-3.863 z m 2.125,-4.756 c -0.822,-1.424 -1.98,-2.921 -4.828,-2.921 -2.801,0 -5.457,1.931 -5.457,6.519 0,4.056 2.028,6.518 5.119,6.518 2.606,0 4.78,-1.689 4.78,-5.698 v -1.159 h -8.161 c 0,-2.752 1.643,-4.683 3.719,-4.683 1.545,0 2.752,0.821 3.475,2.125 l 1.353,-0.701"
       style="fill:#231f20;fill-opacity:1;fill-rule:nonzero;stroke:none;stroke-width:0.1"
       id="path90" /><path
       d="m 564.363,233.172 v 12.553 h 1.738 v -1.665 l 0.096,0.097 c 1.064,1.183 2.439,1.81 3.646,1.81 1.619,0 2.752,-0.821 3.211,-1.979 1.111,1.183 2.512,1.979 3.984,1.979 1.666,0 3.453,-0.7 3.453,-3.814 v -8.981 h -1.738 v 8.981 c 0,1.69 -0.846,2.317 -1.957,2.317 -1.545,0 -2.557,-1.013 -3.5,-1.931 v -9.367 h -1.738 v 8.981 c 0,1.69 -0.844,2.317 -1.955,2.317 -1.545,0 -2.559,-1.013 -3.502,-1.931 v -9.367 h -1.738"
       style="fill:#231f20;fill-opacity:1;fill-rule:nonzero;stroke:none;stroke-width:0.1"
       id="path92" /><path
       d="m 584.682,236.358 c 0.822,-1.182 2.029,-1.931 3.599,-1.931 1.883,0 2.703,1.014 2.703,2.077 0,3.186 -7.435,1.496 -7.291,6.083 0.073,2.173 1.737,3.405 4.153,3.38 1.642,-0.023 3.451,-0.917 4.298,-2.197 l -1.207,-1.062 c -0.968,1.183 -1.884,1.762 -3.236,1.762 -1.473,0 -2.271,-0.748 -2.271,-1.858 0,-2.729 7.292,-1.328 7.292,-6.012 0,-2.439 -2.124,-3.67 -4.394,-3.67 -1.955,0 -3.863,0.845 -5.021,2.39 l 1.375,1.038"
       style="fill:#231f20;fill-opacity:1;fill-rule:nonzero;stroke:none;stroke-width:0.1"
       id="path94" /><path
       d="m 614.344,250.603 v -1.642 h -8.523 v -5.842 h 6.06 v -1.642 h -6.06 v -6.664 h 9.005 v -1.641 h -10.937 v 17.431 h 10.455"
       style="fill:#231f20;fill-opacity:1;fill-rule:nonzero;stroke:none;stroke-width:0.1"
       id="path96" /><path
       d="m 620.156,245.725 v -1.689 h 0.047 c 0.99,1.11 2.296,1.931 3.72,1.931 1.858,0 3.621,-0.965 3.621,-3.669 v -9.126 h -1.738 v 9.078 c 0,1.665 -0.797,2.22 -2.053,2.22 -1.304,0 -2.8,-1.062 -3.597,-1.907 v -9.391 h -1.737 v 12.553 h 1.737"
       style="fill:#231f20;fill-opacity:1;fill-rule:nonzero;stroke:none;stroke-width:0.1"
       id="path98" /><path
       d="m 635.625,244.47 c -1.98,0 -3.042,-1.255 -3.042,-2.896 0,-1.666 1.304,-2.898 3.236,-2.898 1.98,0 2.992,1.304 2.992,2.801 0,1.834 -1.061,2.993 -3.186,2.993 z m -0.072,-10.768 c -2.728,0 -3.5,-1.207 -3.5,-2.1 0,-0.941 0.578,-1.569 4.055,-1.569 2.076,0 3.767,0.579 3.791,1.811 -0.024,1.231 -1.28,1.858 -4.346,1.858 z m 5.963,10.768 c -0.723,0 -1.496,-0.121 -1.93,-0.338 0.361,-0.434 0.869,-1.4 0.869,-2.558 0,-2.487 -2.054,-4.395 -4.589,-4.395 -1.014,0 -1.545,0.145 -2.221,0.338 -0.676,-0.193 -0.99,-0.603 -0.99,-1.159 0,-0.579 0.412,-0.917 1.039,-0.917 5.939,0 7.847,-1.062 7.847,-3.525 0,-1.835 -1.812,-3.38 -5.722,-3.38 -3.525,0 -5.408,0.965 -5.408,3.042 0,1.256 0.773,1.859 2.123,2.559 -0.965,0.29 -1.567,1.039 -1.567,1.787 0,1.086 0.723,1.545 1.688,2.148 -1.182,0.894 -1.713,2.126 -1.713,3.502 0,2.655 2.076,4.393 4.756,4.393 1.351,0 2.293,-0.29 3.113,-0.869 0.75,0.531 1.765,1.015 2.705,1.111 v -1.739"
       style="fill:#231f20;fill-opacity:1;fill-rule:nonzero;stroke:none;stroke-width:0.1"
       id="path100" /><path
       d="m 644.722,245.725 h 1.739 v -12.553 h -1.739 z m 1.739,5.119 v -2.076 h -1.739 v 2.076 h 1.739"
       style="fill:#231f20;fill-opacity:1;fill-rule:nonzero;stroke:none;stroke-width:0.1"
       id="path102" /><path
       d="m 653.073,245.725 v -1.689 h 0.047 c 0.99,1.11 2.295,1.931 3.719,1.931 1.859,0 3.621,-0.965 3.621,-3.669 v -9.126 h -1.738 v 9.078 c 0,1.665 -0.797,2.22 -2.053,2.22 -1.303,0 -2.799,-1.062 -3.596,-1.907 v -9.391 h -1.738 v 12.553 h 1.738"
       style="fill:#231f20;fill-opacity:1;fill-rule:nonzero;stroke:none;stroke-width:0.1"
       id="path104" /><path
       d="m 671.969,240.607 c 0,2.318 -1.11,3.863 -2.994,3.863 -2.1,0 -3.233,-1.545 -3.379,-3.863 z m 2.125,-4.756 c -0.821,-1.424 -1.979,-2.921 -4.828,-2.921 -2.801,0 -5.457,1.931 -5.457,6.519 0,4.056 2.029,6.518 5.119,6.518 2.607,0 4.781,-1.689 4.781,-5.698 v -1.159 h -8.162 c 0,-2.752 1.643,-4.683 3.719,-4.683 1.545,0 2.752,0.821 3.476,2.125 l 1.352,-0.701"
       style="fill:#231f20;fill-opacity:1;fill-rule:nonzero;stroke:none;stroke-width:0.1"
       id="path106" /><path
       d="m 684.278,240.607 c 0,2.318 -1.111,3.863 -2.994,3.863 -2.101,0 -3.234,-1.545 -3.38,-3.863 z m 2.125,-4.756 c -0.822,-1.424 -1.98,-2.921 -4.828,-2.921 -2.802,0 -5.458,1.931 -5.458,6.519 0,4.056 2.029,6.518 5.119,6.518 2.607,0 4.781,-1.689 4.781,-5.698 v -1.159 h -8.162 c 0,-2.752 1.644,-4.683 3.72,-4.683 1.545,0 2.752,0.821 3.475,2.125 l 1.353,-0.701"
       style="fill:#231f20;fill-opacity:1;fill-rule:nonzero;stroke:none;stroke-width:0.1"
       id="path108" /><path
       d="m 689.151,245.725 h 1.738 v -2.485 h 0.049 c 0.965,1.713 2.002,2.679 4.08,2.679 v -1.739 c -2.174,-0.048 -3.309,-1.472 -4.129,-4.055 v -6.953 h -1.738 v 12.553"
       style="fill:#231f20;fill-opacity:1;fill-rule:nonzero;stroke:none;stroke-width:0.1"
       id="path110" /><path
       d="m 698.222,245.725 h 1.739 v -12.553 h -1.739 z m 1.739,5.119 v -2.076 h -1.739 v 2.076 h 1.739"
       style="fill:#231f20;fill-opacity:1;fill-rule:nonzero;stroke:none;stroke-width:0.1"
       id="path112" /><path
       d="m 706.574,245.725 v -1.689 h 0.048 c 0.989,1.11 2.295,1.931 3.719,1.931 1.859,0 3.621,-0.965 3.621,-3.669 v -9.126 h -1.738 v 9.078 c 0,1.665 -0.797,2.22 -2.053,2.22 -1.303,0 -2.799,-1.062 -3.597,-1.907 v -9.391 h -1.737 v 12.553 h 1.737"
       style="fill:#231f20;fill-opacity:1;fill-rule:nonzero;stroke:none;stroke-width:0.1"
       id="path114" /><path
       d="m 722.043,244.47 c -1.98,0 -3.041,-1.255 -3.041,-2.896 0,-1.666 1.303,-2.898 3.235,-2.898 1.98,0 2.992,1.304 2.992,2.801 0,1.834 -1.061,2.993 -3.186,2.993 z m -0.072,-10.768 c -2.728,0 -3.5,-1.207 -3.5,-2.1 0,-0.941 0.578,-1.569 4.055,-1.569 2.076,0 3.767,0.579 3.791,1.811 -0.024,1.231 -1.28,1.858 -4.346,1.858 z m 5.963,10.768 c -0.723,0 -1.496,-0.121 -1.93,-0.338 0.361,-0.434 0.869,-1.4 0.869,-2.558 0,-2.487 -2.054,-4.395 -4.588,-4.395 -1.015,0 -1.546,0.145 -2.222,0.338 -0.676,-0.193 -0.99,-0.603 -0.99,-1.159 0,-0.579 0.412,-0.917 1.039,-0.917 5.939,0 7.847,-1.062 7.847,-3.525 0,-1.835 -1.812,-3.38 -5.722,-3.38 -3.524,0 -5.408,0.965 -5.408,3.042 0,1.256 0.773,1.859 2.124,2.559 -0.966,0.29 -1.568,1.039 -1.568,1.787 0,1.086 0.723,1.545 1.688,2.148 -1.182,0.894 -1.713,2.126 -1.713,3.502 0,2.655 2.076,4.393 4.756,4.393 1.351,0 2.294,-0.29 3.113,-0.869 0.75,0.531 1.765,1.015 2.705,1.111 v -1.739"
       style="fill:#231f20;fill-opacity:1;fill-rule:nonzero;stroke:none;stroke-width:0.1"
       id="path116" /><path
       d="m 331.438,207.095 c -2.004,-0.387 -4.201,-0.796 -4.201,-2.56 0,-0.941 0.602,-1.472 1.448,-1.472 0.941,0 2.126,0.797 2.753,1.328 z m 0.313,-6.012 -0.192,1.086 c -1.207,-0.82 -2.343,-1.328 -3.912,-1.328 -2.269,0 -3.404,1.618 -3.404,3.333 0,2.848 2.317,4.345 7.195,4.925 v 1.062 c 0,0.966 -0.773,1.496 -1.834,1.496 -1.402,0 -2.175,-0.748 -2.755,-1.545 l -1.93,1.474 c 0.773,1.328 2.848,2.341 4.685,2.293 3.379,-0.073 4.828,-1.304 4.828,-5.07 v -5.915 c 0,-0.627 0.047,-1.255 0.241,-1.811 h -2.922"
       style="fill:#231f20;fill-opacity:1;fill-rule:nonzero;stroke:none;stroke-width:0.1"
       id="path118" /><path
       d="m 338.145,213.637 v 4.153 h 2.992 v -4.153 h 2.463 v -2.414 h -2.463 v -7.098 c 0,-0.676 0.338,-0.869 1.088,-0.869 0.457,0 0.941,0.145 1.375,0.241 v -2.462 c -0.819,-0.096 -1.545,-0.194 -2.365,-0.194 -2.221,0 -3.09,1.111 -3.09,2.898 v 7.484 h -1.739 v 2.414 h 1.739"
       style="fill:#231f20;fill-opacity:1;fill-rule:nonzero;stroke:none;stroke-width:0.1"
       id="path120" /><path
       d="m 357.208,210.885 h 2.461 c 2.609,0 3.406,0.822 3.406,2.463 0,1.642 -0.99,2.462 -2.826,2.462 h -3.041 z m -3.332,-9.802 v 17.431 h 6.953 c 3.959,0 5.554,-2.293 5.576,-5.166 0.025,-2.149 -1.061,-3.887 -3.186,-4.491 l 3.838,-7.774 h -3.693 l -3.283,7.098 h -2.873 v -7.098 h -3.332"
       style="fill:#231f20;fill-opacity:1;fill-rule:nonzero;stroke:none;stroke-width:0.1"
       id="path122" /><path
       d="m 376.732,208.905 c -0.049,1.739 -0.965,2.752 -2.414,2.752 -1.449,0 -2.367,-1.013 -2.414,-2.752 z m -4.828,-2.027 c 0.047,-2.608 1.207,-3.622 2.607,-3.622 1.399,0 2.051,0.628 2.801,1.497 l 2.172,-1.352 c -1.16,-1.787 -2.848,-2.56 -5.262,-2.56 -3.261,0 -5.312,2.535 -5.312,6.519 0,3.984 2.051,6.519 5.455,6.519 3.285,0.024 5.119,-2.752 5.119,-5.77 v -1.231 h -7.58"
       style="fill:#231f20;fill-opacity:1;fill-rule:nonzero;stroke:none;stroke-width:0.1"
       id="path124" /><path
       d="m 382.184,201.083 v 12.554 h 2.752 v -1.352 c 1.11,0.773 2.389,1.594 3.862,1.594 2.511,0 3.718,-1.642 3.718,-4.201 v -8.595 h -2.992 v 8.16 c 0,1.691 -0.533,2.222 -1.545,2.222 -1.306,0 -2.295,-0.749 -2.802,-1.328 v -9.054 h -2.993"
       style="fill:#231f20;fill-opacity:1;fill-rule:nonzero;stroke:none;stroke-width:0.1"
       id="path126" /><path
       d="m 401.951,210.33 c -0.604,0.652 -1.402,1.327 -2.342,1.327 -1.16,0 -1.691,-0.482 -1.691,-1.23 0,-2.149 6.277,-1.232 6.277,-5.819 0,-2.608 -1.98,-3.767 -4.611,-3.767 -2.004,0 -3.645,0.894 -4.756,2.535 l 2.004,1.497 c 0.701,-0.965 1.642,-1.81 2.922,-1.81 1.062,0 1.785,0.58 1.785,1.424 0,2.149 -6.277,1.376 -6.277,5.746 0,2.342 1.98,3.646 4.154,3.646 1.666,0 3.33,-0.627 4.418,-1.907 l -1.883,-1.642"
       style="fill:#231f20;fill-opacity:1;fill-rule:nonzero;stroke:none;stroke-width:0.1"
       id="path128" /><path
       d="m 412.905,210.33 c -0.605,0.652 -1.402,1.327 -2.342,1.327 -1.16,0 -1.691,-0.482 -1.691,-1.23 0,-2.149 6.277,-1.232 6.277,-5.819 0,-2.608 -1.98,-3.767 -4.611,-3.767 -2.004,0 -3.646,0.894 -4.756,2.535 l 2.004,1.497 c 0.701,-0.965 1.641,-1.81 2.922,-1.81 1.062,0 1.785,0.58 1.785,1.424 0,2.149 -6.277,1.376 -6.277,5.746 0,2.342 1.98,3.646 4.154,3.646 1.666,0 3.33,-0.627 4.418,-1.907 l -1.883,-1.642"
       style="fill:#231f20;fill-opacity:1;fill-rule:nonzero;stroke:none;stroke-width:0.1"
       id="path130" /><path
       d="m 424.609,208.905 c -0.049,1.739 -0.966,2.752 -2.414,2.752 -1.449,0 -2.367,-1.013 -2.414,-2.752 z m -4.828,-2.027 c 0.047,-2.608 1.207,-3.622 2.606,-3.622 1.4,0 2.052,0.628 2.802,1.497 l 2.172,-1.352 c -1.16,-1.787 -2.849,-2.56 -5.263,-2.56 -3.26,0 -5.311,2.535 -5.311,6.519 0,3.984 2.051,6.519 5.455,6.519 3.285,0.024 5.119,-2.752 5.119,-5.77 v -1.231 h -7.58"
       style="fill:#231f20;fill-opacity:1;fill-rule:nonzero;stroke:none;stroke-width:0.1"
       id="path132" /><path
       d="m 430.374,201.083 v 17.431 h 2.994 v -17.431 h -2.994"
       style="fill:#231f20;fill-opacity:1;fill-rule:nonzero;stroke:none;stroke-width:0.1"
       id="path134" /><path
       d="m 443.096,207.095 c -2.005,-0.387 -4.201,-0.796 -4.201,-2.56 0,-0.941 0.602,-1.472 1.448,-1.472 0.941,0 2.125,0.797 2.753,1.328 z m 0.313,-6.012 -0.193,1.086 c -1.207,-0.82 -2.342,-1.328 -3.912,-1.328 -2.268,0 -3.403,1.618 -3.403,3.333 0,2.848 2.317,4.345 7.195,4.925 v 1.062 c 0,0.966 -0.773,1.496 -1.835,1.496 -1.401,0 -2.174,-0.748 -2.754,-1.545 l -1.93,1.474 c 0.772,1.328 2.848,2.341 4.684,2.293 3.38,-0.073 4.828,-1.304 4.828,-5.07 v -5.915 c 0,-0.627 0.048,-1.255 0.242,-1.811 h -2.922"
       style="fill:#231f20;fill-opacity:1;fill-rule:nonzero;stroke:none;stroke-width:0.1"
       id="path136" /><path
       d="m 456.174,208.905 c -0.049,1.739 -0.965,2.752 -2.414,2.752 -1.448,0 -2.366,-1.013 -2.414,-2.752 z m -4.828,-2.027 c 0.048,-2.608 1.207,-3.622 2.607,-3.622 1.4,0 2.051,0.628 2.801,1.497 l 2.173,-1.352 c -1.16,-1.787 -2.849,-2.56 -5.263,-2.56 -3.26,0 -5.312,2.535 -5.312,6.519 0,3.984 2.052,6.519 5.456,6.519 3.284,0.024 5.119,-2.752 5.119,-5.77 v -1.231 h -7.581"
       style="fill:#231f20;fill-opacity:1;fill-rule:nonzero;stroke:none;stroke-width:0.1"
       id="path138" /><path
       d="m 461.433,201.083 v 12.554 h 2.752 v -2.149 h 0.048 c 0.725,1.497 1.739,2.343 3.524,2.391 v -3.163 c -0.143,0.024 -0.313,0.024 -0.531,0.024 -1.496,0 -2.799,-1.714 -2.799,-2.027 v -7.63 h -2.994"
       style="fill:#231f20;fill-opacity:1;fill-rule:nonzero;stroke:none;stroke-width:0.1"
       id="path140" /><path
       d="m 179.219,344.716 v 19.505 h 61.209 V 344.716 Z M 140.21,295.875 v 115.284 h 104.659 v -24.738 h -80.081 v -65.809 h 80.239 V 295.875 H 140.21"
       style="fill:#231f20;fill-opacity:1;fill-rule:nonzero;stroke:none;stroke-width:0.1"
       id="path142" /><path
       d="m 319.087,295.875 c -32.825,0 -56.927,25.372 -56.927,58.831 0,33.935 24.102,56.453 56.927,56.453 h 63.589 v -24.738 h -63.589 c -18.552,0 -32.19,-13.796 -32.19,-32.984 0,-19.028 13.478,-32.825 32.19,-32.825 h 63.589 v -24.737 h -63.589"
       style="fill:#231f20;fill-opacity:1;fill-rule:nonzero;stroke:none;stroke-width:0.1"
       id="path144" /><path
       d="m 402.186,295.875 v 24.737 h 87.057 c 8.881,0 13.955,4.599 13.955,11.894 0,7.77 -5.074,12.21 -13.955,12.21 h -52.171 c -22.677,0 -36.63,13.637 -36.63,33.142 0,19.029 13.002,33.301 36.948,33.301 h 83.41 v -24.738 h -83.41 c -6.978,0 -11.26,-3.964 -11.26,-11.1 0,-7.136 4.441,-11.1 11.26,-11.1 h 51.853 c 24.262,0 37.266,-10.784 37.266,-33.776 0,-19.823 -12.211,-34.57 -37.266,-34.57 h -87.057"
       style="fill:#231f20;fill-opacity:1;fill-rule:nonzero;stroke:none;stroke-width:0.1"
       id="path146" /><path
       d="m 585.982,344.716 v 19.505 h 61.21 V 344.716 Z M 546.973,295.875 V 411.159 H 651.632 V 386.421 H 571.551 V 320.612 H 651.79 V 295.875 H 546.973"
       style="fill:#231f20;fill-opacity:1;fill-rule:nonzero;stroke:none;stroke-width:0.1"
       id="path148" /></g></svg>
